<?xml version="1.0" encoding="utf-8"?>
<!-- Generator: Adobe Illustrator 19.0.0, SVG Export Plug-In . SVG Version: 6.00 Build 0)  -->
<svg version="1.1" id="Capa_1" xmlns="http://www.w3.org/2000/svg" xmlns:xlink="http://www.w3.org/1999/xlink" x="0px" y="0px"
	 viewBox="160 -160 350 350" style="enable-background:new 160 -160 350 350;" xml:space="preserve">
<style type="text/css">
	.st0{fill:#0CA309;}
</style>
<g>
	<path class="st0" d="M335,11.2c38.9,0,70.5-38.3,70.5-85.6c0-47.3-10.4-85.6-70.5-85.6s-70.5,38.3-70.5,85.6
		C264.5-27.1,296.1,11.2,335,11.2z"/>
	<path class="st0" d="M201.9,141.9C201.9,139,201.9,141,201.9,141.9L201.9,141.9z"/>
	<path class="st0" d="M468.1,144.1C468.1,143.3,468.1,138.6,468.1,144.1L468.1,144.1z"/>
	<path class="st0" d="M467.9,138.4c-1.3-82.3-12.1-105.8-94.4-120.7c0,0-11.6,14.8-38.6,14.8s-38.6-14.8-38.6-14.8
		c-81.4,14.7-92.8,37.8-94.3,118c-0.1,6.5-0.2,6.9-0.2,6.1c0,1.4,0,4.1,0,8.7c0,0,19.6,39.5,133.1,39.5
		c113.5,0,133.1-39.5,133.1-39.5c0-3,0-5,0-6.4C468.1,144.6,468,143.7,467.9,138.4z"/>
</g>
</svg>
