<?xml version="1.0" encoding="utf-8"?>
<!-- Generator: Adobe Illustrator 19.0.0, SVG Export Plug-In . SVG Version: 6.00 Build 0)  -->
<svg version="1.1" id="Capa_1" xmlns="http://www.w3.org/2000/svg" xmlns:xlink="http://www.w3.org/1999/xlink" x="0px" y="0px"
	 viewBox="225 -225 480 480" style="enable-background:new 225 -225 480 480;" xml:space="preserve">
<style type="text/css">
	.st0{fill:#FCCD00;}
</style>
<g>
	<g>
		<path class="st0" d="M684.8,122.3c-4.3-5.3-11.5-7.2-17.8-5c-17.8,6.4-37,9.6-57.3,9.6c-97.1,0-176-79-176-176
			c0-58.4,28.8-112.8,77.1-145.5c5.5-3.7,8.1-10.4,6.6-16.8c-1.5-6.4-6.8-11.3-13.3-12.3c-7.5-1.1-14.9-1.4-22.4-1.4
			c-132.4,0-240,107.6-240,240s107.6,240,240,240c84,0,160.4-42.7,204.4-114.2C689.5,135,689,127.6,684.8,122.3z"/>
	</g>
</g>
</svg>
