<?xml version="1.0" encoding="utf-8"?>
<!-- Generator: Adobe Illustrator 19.0.0, SVG Export Plug-In . SVG Version: 6.00 Build 0)  -->
<svg version="1.1" id="Layer_1" xmlns="http://www.w3.org/2000/svg" xmlns:xlink="http://www.w3.org/1999/xlink" x="0px" y="0px"
	 viewBox="226 -225.9 481.9 481.9" style="enable-background:new 226 -225.9 481.9 481.9;" xml:space="preserve">
<style type="text/css">
	.st0{fill:#FCCD00;}
</style>
<circle class="st0" cx="466.9" cy="15.1" r="138.5"/>
<g>
	<path class="st0" d="M532.6-107.2c6,19.3,10.2,39.8,10.8,60.8c3.6,83.7-53,157.8-126.5,190.3c15.7,6,32.5,9.6,50,9.6
		c76.5,0,138.5-62,138.5-138.5C605.5-37.9,576-83.7,532.6-107.2z"/>
	<path class="st0" d="M466.9-225.9c-11.4,0-20.5,9-20.5,20.5v33.7c0,11.4,9,20.5,20.5,20.5c11.4,0,20.5-9,20.5-20.5v-33.7
		C487.4-216.8,478.4-225.9,466.9-225.9z"/>
	<path class="st0" d="M466.9,181.3c-11.4,0-20.5,9-20.5,20.5v33.7c0,11.4,9,20.5,20.5,20.5c11.4,0,20.5-9,20.5-20.5v-33.7
		C487.4,190.3,478.4,181.3,466.9,181.3z"/>
	<path class="st0" d="M707.9,15.1c0-11.4-9-20.5-20.5-20.5h-33.7c-11.4,0-20.5,9-20.5,20.5s9,20.5,20.5,20.5h33.7
		C698.8,35.5,707.9,26.5,707.9,15.1z"/>
	<path class="st0" d="M300.7,15.1c0-11.4-9-20.5-20.5-20.5h-33.7c-11.4,0-20.5,9-20.5,20.5s9,20.5,20.5,20.5h33.7
		C291.7,35.5,300.7,26.5,300.7,15.1z"/>
	<path class="st0" d="M637.4-155.4c-7.8-7.8-21.1-7.8-28.9,0l-24.1,24.1c-7.8,7.8-7.8,21.1,0,28.9c7.8,7.8,21.1,7.8,28.9,0
		l24.1-24.1C645.2-134.3,645.2-147.6,637.4-155.4z"/>
	<path class="st0" d="M349.5,132.5c-7.8-7.8-21.1-7.8-28.9,0l-24.1,24.1c-7.8,7.8-7.8,21.1,0,28.9c7.8,7.8,21.1,7.8,28.9,0
		l24.1-24.1C357.3,153.6,357.3,141,349.5,132.5z"/>
	<path class="st0" d="M637.4,185.5c7.8-7.8,7.8-21.1,0-28.9l-24.1-24.1c-7.8-7.8-21.1-7.8-28.9,0c-7.8,7.8-7.8,21.1,0,28.9
		l24.1,24.1C616.3,193.4,629.6,193.4,637.4,185.5z"/>
	<path class="st0" d="M349.5-102.4c7.8-7.8,7.8-21.1,0-28.9l-24.1-24.1c-7.8-7.8-21.1-7.8-28.9,0c-7.8,7.8-7.8,21.1,0,28.9
		l24.1,24.1C328.4-94.6,341-94.6,349.5-102.4z"/>
</g>
</svg>
