<?xml version="1.0" encoding="utf-8"?>
<!-- Generator: Adobe Illustrator 19.0.0, SVG Export Plug-In . SVG Version: 6.00 Build 0)  -->
<svg version="1.1" id="Слой_1" xmlns="http://www.w3.org/2000/svg" xmlns:xlink="http://www.w3.org/1999/xlink" x="0px" y="0px"
	 viewBox="0 0 30 30" style="enable-background:new 0 0 30 30;" xml:space="preserve">
<style type="text/css">
	.st0{fill:#FAFAFA;}
	.st1{font-family:'Stencil';}
	.st2{font-size:22.6947px;}
</style>
<text id="XMLID_1_" transform="matrix(0.8157 0 0 1 1.3125 23.9961)" class="st0 st1 st2">A</text>
<g id="XMLID_5_">
	<path id="XMLID_2_" class="st0" d="M21.6,9.1l-4.9,4.5c-0.3,0.3-0.3,0.7,0,1c0.3,0.3,0.8,0.3,1,0l3.5-3.3l0,12
		c0,0.4,0.3,0.7,0.8,0.7c0.5,0,0.8-0.3,0.8-0.7l0-12l3.5,3.3c0.3,0.3,0.8,0.3,1,0c0.1-0.1,0.2-0.3,0.2-0.5s-0.1-0.4-0.2-0.5
		l-4.9-4.5C22.4,8.8,21.9,8.8,21.6,9.1z"/>
</g>
</svg>
